<svg xmlns="http://www.w3.org/2000/svg" xmlns:xlink="http://www.w3.org/1999/xlink" version="1.1" x="0px" y="0px" viewBox="0 0 100 100" enable-background="new 0 0 100 100" xml:space="preserve">
    <g>
        <g><path  stroke="#b76cff" stroke-width="3" fill="#b76cff" d="M52.7,58.245c-6.322,0-11.466-5.144-11.466-11.466S46.378,35.313,52.7,35.313s11.466,5.144,11.466,11.466    S59.022,58.245,52.7,58.245z M52.7,38.063c-4.806,0-8.716,3.91-8.716,8.716s3.91,8.716,8.716,8.716s8.716-3.91,8.716-8.716    S57.506,38.063,52.7,38.063z"/></g>
        <g><path  stroke="#b76cff" stroke-width="3" fill="#b76cff" d="M65.653,21.072c-0.859,0-1.708-0.143-2.522-0.424c-4.201-1.452-6.379-6.223-4.855-10.636    c1.198-3.466,4.358-5.794,7.863-5.794c0.86,0,1.708,0.143,2.523,0.424c2.05,0.708,3.682,2.215,4.595,4.242    c0.901,2,0.993,4.27,0.259,6.393C72.318,18.743,69.159,21.072,65.653,21.072z M66.139,6.968c-2.333,0-4.448,1.584-5.264,3.942    c-1.029,2.979,0.386,6.182,3.154,7.138c0.524,0.182,1.071,0.273,1.624,0.273c2.334,0,4.449-1.584,5.264-3.942    c0.504-1.458,0.445-3.007-0.167-4.365c-0.599-1.33-1.659-2.314-2.986-2.772C67.239,7.061,66.692,6.968,66.139,6.968z"/></g>
        <g><path  stroke="#b76cff" stroke-width="3" fill="#b76cff" d="M57.252,39.035c-0.149,0-0.3-0.024-0.449-0.076c-0.718-0.248-1.099-1.031-0.851-1.749l6.328-18.311    c0.248-0.717,1.028-1.1,1.749-0.851c0.718,0.248,1.099,1.031,0.851,1.749l-6.328,18.311    C58.355,38.677,57.822,39.035,57.252,39.035z"/></g>
        <g>
            <g><path  stroke="#b76cff" stroke-width="3" fill="#b76cff" d="M17.658,64.897c-3.73,0-6.99-2.427-7.928-5.902c-0.564-2.091-0.243-4.283,0.903-6.171     c1.134-1.868,2.943-3.216,5.095-3.796c0.744-0.201,1.508-0.303,2.271-0.303c3.73,0,6.989,2.427,7.927,5.901     c1.158,4.292-1.533,8.764-5.998,9.969C19.184,64.796,18.42,64.897,17.658,64.897z M18,51.475c-0.521,0-1.044,0.07-1.555,0.208     c-1.466,0.395-2.695,1.307-3.46,2.568c-0.753,1.24-0.965,2.67-0.599,4.028c0.615,2.278,2.783,3.869,5.272,3.869     c0.521,0,1.043-0.07,1.554-0.208c3-0.81,4.821-3.77,4.059-6.598C22.657,53.065,20.489,51.475,18,51.475z"/></g>
            <g><path  stroke="#b76cff" stroke-width="3" fill="#b76cff" d="M24.598,56.36c-0.606,0-1.161-0.404-1.327-1.017c-0.198-0.733,0.236-1.488,0.969-1.686l18.495-4.99     c0.734-0.195,1.488,0.236,1.686,0.969c0.198,0.733-0.236,1.488-0.969,1.686l-18.495,4.99     C24.837,56.344,24.716,56.36,24.598,56.36z"/></g>
        </g>
        <g>
            <g><path  stroke="#b76cff" stroke-width="3" fill="#b76cff" d="M57.09,91.459c-4.161,0-7.703-3.343-8.064-7.611c-0.187-2.198,0.468-4.337,1.843-6.024     c1.386-1.7,3.336-2.736,5.491-2.918c4.439-0.384,8.352,3.088,8.732,7.583c0.385,4.556-2.905,8.567-7.335,8.942     C57.534,91.45,57.311,91.459,57.09,91.459z M57.028,77.627c-0.145,0-0.29,0.006-0.437,0.019c-1.405,0.119-2.68,0.799-3.591,1.916     c-0.922,1.13-1.36,2.57-1.234,4.054c0.254,3.006,2.815,5.312,5.76,5.075c2.918-0.247,5.083-2.925,4.826-5.97     C62.11,79.865,59.771,77.627,57.028,77.627z"/></g>
            <g><path  stroke="#b76cff" stroke-width="3" fill="#b76cff" d="M56.474,77.651c-0.707,0-1.308-0.542-1.369-1.259l-1.593-18.829c-0.064-0.756,0.498-1.422,1.254-1.486     c0.751-0.074,1.422,0.498,1.486,1.254l1.593,18.829c0.064,0.756-0.498,1.422-1.254,1.486     C56.552,77.649,56.513,77.651,56.474,77.651z"/></g>
        </g>
        <g>
            <g><path  stroke="#b76cff" stroke-width="3" fill="#b76cff" d="M81.117,62.097c-0.658,0-1.317-0.082-1.96-0.242c-2.089-0.522-3.85-1.827-4.958-3.673     s-1.431-4.014-0.908-6.103c0.899-3.597,4.113-6.108,7.816-6.108c0.658,0,1.317,0.082,1.96,0.242     c4.312,1.079,6.944,5.464,5.866,9.777C88.035,59.585,84.82,62.097,81.117,62.097z M81.106,48.72     c-2.439,0-4.556,1.655-5.148,4.025c-0.344,1.376-0.132,2.805,0.598,4.021c0.73,1.217,1.89,2.076,3.267,2.42     c0.425,0.106,0.86,0.16,1.293,0.16c2.439,0,4.556-1.655,5.148-4.025c0.71-2.841-1.024-5.731-3.865-6.442     C81.975,48.773,81.54,48.72,81.106,48.72z"/></g>
            <g><path  stroke="#b76cff" stroke-width="3" fill="#b76cff" d="M74.625,53.787c-0.111,0-0.223-0.014-0.335-0.042l-11.899-2.986c-0.737-0.185-1.184-0.932-0.999-1.668     c0.185-0.737,0.933-1.184,1.668-0.999l11.899,2.986c0.737,0.185,1.184,0.932,0.999,1.668     C75.802,53.371,75.241,53.787,74.625,53.787z"/></g>
        </g>
    </g>
</svg>