<svg width="636.1" height="140.4" xmlns="http://www.w3.org/2000/svg">
 <style type="text/css">.st0{fill:url(#SVGID_1_);}
	.st1{fill:url(#SVGID_2_);}
	.st2{fill:url(#SVGID_3_);}
	.st3{fill:url(#SVGID_4_);}
	.st4{fill:url(#SVGID_5_);}
	.st5{fill:url(#SVGID_6_);}
	.st6{fill:url(#SVGID_7_);}
	.st7{fill:url(#SVGID_8_);}
	.st8{fill:url(#SVGID_9_);}
    @font-face {
     font-family: 'Shadows Into Light';
     font-style: normal;
     font-weight: 400;
     font-display: swap;
     src: url('https://fonts.gstatic.com/s/shadowsintolight/v10/UqyNK9UOIntux_czAvDQx_ZcHqZXBNQzdcD55TecYQ.woff2') format('woff2');
    }</style>
 <defs>
  <linearGradient y2="0" x2="1" y1="0" x1="0" id="svg_69">
   <stop offset="0" stop-opacity="0.99609" stop-color="#da8cff"/>
   <stop offset="1" stop-opacity="0.99609" stop-color="#9a55ff"/>
  </linearGradient>
 </defs>
 <g>
  <title>background</title>
  <rect fill="none" id="canvas_background" height="142.4" width="638.1" y="-1" x="-1"/>
 </g>
 <g>
  <title>Layer 1</title>
  <g stroke="null" id="svg_48"/>
  <text font-style="normal" font-weight="bold" xml:space="preserve" text-anchor="start" font-family="'Shadows Into Light', Helvetica, Arial, sans-serif" font-size="119" id="svg_70" y="119.20001" x="218.54999" fill-opacity="null" stroke-opacity="null" stroke-width="0" stroke="null" fill="url(#svg_69)">Molecule</text>
  <g stroke="null" id="svg_96">
   <g stroke="null" transform="matrix(1.3354873928168667,0,0,1.3354873928168667,-1665.7432316337654,-309.1401148667501) " id="svg_74">
    <g stroke="null" id="svg_75">
     <path stroke="#b76cff" id="svg_76" d="m1345.43531,294.22859c-6.322,0 -11.466,-5.144 -11.466,-11.466s5.144,-11.466 11.466,-11.466s11.466,5.144 11.466,11.466s-5.144,11.466 -11.466,11.466zm0,-20.182c-4.806,0 -8.716,3.91 -8.716,8.716s3.91,8.716 8.716,8.716s8.716,-3.91 8.716,-8.716s-3.91,-8.716 -8.716,-8.716z" fill="#b76cff" stroke-width="3"/>
    </g>
    <g stroke="null" id="svg_77">
     <path stroke="#b76cff" id="svg_78" d="m1358.38831,257.05559c-0.859,0 -1.708,-0.143 -2.522,-0.424c-4.201,-1.452 -6.379,-6.223 -4.855,-10.636c1.198,-3.466 4.358,-5.794 7.863,-5.794c0.86,0 1.708,0.143 2.523,0.424c2.05,0.708 3.682,2.215 4.595,4.242c0.901,2 0.993,4.27 0.259,6.393c-1.198,3.466 -4.357,5.795 -7.863,5.795zm0.486,-14.104c-2.333,0 -4.448,1.584 -5.264,3.942c-1.029,2.979 0.386,6.182 3.154,7.138c0.524,0.182 1.071,0.273 1.624,0.273c2.334,0 4.449,-1.584 5.264,-3.942c0.504,-1.458 0.445,-3.007 -0.167,-4.365c-0.599,-1.33 -1.659,-2.314 -2.986,-2.772c-0.525,-0.181 -1.072,-0.274 -1.625,-0.274z" fill="#b76cff" stroke-width="3"/>
    </g>
    <g stroke="null" id="svg_79">
     <path stroke="#b76cff" id="svg_80" d="m1349.98731,275.01859c-0.149,0 -0.3,-0.024 -0.449,-0.076c-0.718,-0.248 -1.099,-1.031 -0.851,-1.749l6.328,-18.311c0.248,-0.717 1.028,-1.1 1.749,-0.851c0.718,0.248 1.099,1.031 0.851,1.749l-6.328,18.311c-0.197,0.569 -0.73,0.927 -1.3,0.927z" fill="#b76cff" stroke-width="3"/>
    </g>
    <g stroke="null" id="svg_81">
     <g stroke="null" id="svg_82">
      <path stroke="#b76cff" id="svg_83" d="m1310.39331,300.88059c-3.73,0 -6.99,-2.427 -7.928,-5.902c-0.564,-2.091 -0.243,-4.283 0.903,-6.171c1.134,-1.868 2.943,-3.216 5.095,-3.796c0.744,-0.201 1.508,-0.303 2.271,-0.303c3.73,0 6.989,2.427 7.927,5.901c1.158,4.292 -1.533,8.764 -5.998,9.969c-0.744,0.201 -1.508,0.302 -2.27,0.302zm0.342,-13.422c-0.521,0 -1.044,0.07 -1.555,0.208c-1.466,0.395 -2.695,1.307 -3.46,2.568c-0.753,1.24 -0.965,2.67 -0.599,4.028c0.615,2.278 2.783,3.869 5.272,3.869c0.521,0 1.043,-0.07 1.554,-0.208c3,-0.81 4.821,-3.77 4.059,-6.598c-0.614,-2.277 -2.782,-3.867 -5.271,-3.867z" fill="#b76cff" stroke-width="3"/>
     </g>
     <g stroke="null" id="svg_84">
      <path stroke="#b76cff" id="svg_85" d="m1317.33331,292.34359c-0.606,0 -1.161,-0.404 -1.327,-1.017c-0.198,-0.733 0.236,-1.488 0.969,-1.686l18.495,-4.99c0.734,-0.195 1.488,0.236 1.686,0.969c0.198,0.733 -0.236,1.488 -0.969,1.686l-18.495,4.99c-0.12,0.032 -0.241,0.048 -0.359,0.048z" fill="#b76cff" stroke-width="3"/>
     </g>
    </g>
    <g stroke="null" id="svg_86">
     <g stroke="null" id="svg_87">
      <path stroke="#b76cff" id="svg_88" d="m1349.82531,327.44259c-4.161,0 -7.703,-3.343 -8.064,-7.611c-0.187,-2.198 0.468,-4.337 1.843,-6.024c1.386,-1.7 3.336,-2.736 5.491,-2.918c4.439,-0.384 8.352,3.088 8.732,7.583c0.385,4.556 -2.905,8.567 -7.335,8.942c-0.223,0.019 -0.446,0.028 -0.667,0.028zm-0.062,-13.832c-0.145,0 -0.29,0.006 -0.437,0.019c-1.405,0.119 -2.68,0.799 -3.591,1.916c-0.922,1.13 -1.36,2.57 -1.234,4.054c0.254,3.006 2.815,5.312 5.76,5.075c2.918,-0.247 5.083,-2.925 4.826,-5.97c-0.242,-2.856 -2.581,-5.094 -5.324,-5.094z" fill="#b76cff" stroke-width="3"/>
     </g>
     <g stroke="null" id="svg_89">
      <path stroke="#b76cff" id="svg_90" d="m1349.20931,313.63459c-0.707,0 -1.308,-0.542 -1.369,-1.259l-1.593,-18.829c-0.064,-0.756 0.498,-1.422 1.254,-1.486c0.751,-0.074 1.422,0.498 1.486,1.254l1.593,18.829c0.064,0.756 -0.498,1.422 -1.254,1.486c-0.039,0.003 -0.078,0.005 -0.117,0.005z" fill="#b76cff" stroke-width="3"/>
     </g>
    </g>
    <g stroke="null" id="svg_91">
     <g stroke="null" id="svg_92">
      <path stroke="#b76cff" id="svg_93" d="m1373.85231,298.08059c-0.658,0 -1.317,-0.082 -1.96,-0.242c-2.089,-0.522 -3.85,-1.827 -4.958,-3.673s-1.431,-4.014 -0.908,-6.103c0.899,-3.597 4.113,-6.108 7.816,-6.108c0.658,0 1.317,0.082 1.96,0.242c4.312,1.079 6.944,5.464 5.866,9.777c-0.898,3.595 -4.113,6.107 -7.816,6.107zm-0.011,-13.377c-2.439,0 -4.556,1.655 -5.148,4.025c-0.344,1.376 -0.132,2.805 0.598,4.021c0.73,1.217 1.89,2.076 3.267,2.42c0.425,0.106 0.86,0.16 1.293,0.16c2.439,0 4.556,-1.655 5.148,-4.025c0.71,-2.841 -1.024,-5.731 -3.865,-6.442c-0.424,-0.106 -0.859,-0.159 -1.293,-0.159z" fill="#b76cff" stroke-width="3"/>
     </g>
     <g stroke="null" id="svg_94">
      <path stroke="#b76cff" id="svg_95" d="m1367.36031,289.77059c-0.111,0 -0.223,-0.014 -0.335,-0.042l-11.899,-2.986c-0.737,-0.185 -1.184,-0.932 -0.999,-1.668c0.185,-0.737 0.933,-1.184 1.668,-0.999l11.899,2.986c0.737,0.185 1.184,0.932 0.999,1.668c-0.156,0.625 -0.717,1.041 -1.333,1.041z" fill="#b76cff" stroke-width="3"/>
     </g>
    </g>
   </g>
  </g>
 </g>
</svg>